<?xml version="1.0" encoding="UTF-8"?>
<svg width="1200" height="400" viewBox="0 0 1200 400" fill="none" xmlns="http://www.w3.org/2000/svg">
  <defs>
    <linearGradient id="bg" x1="120" y1="40" x2="1120" y2="360" gradientUnits="userSpaceOnUse">
      <stop stop-color="#6366F1"/>
      <stop offset="0.5" stop-color="#EC4899"/>
      <stop offset="1" stop-color="#22C55E"/>
    </linearGradient>
    <filter id="shadow" x="0" y="0" width="1200" height="400" filterUnits="userSpaceOnUse" color-interpolation-filters="sRGB">
      <feDropShadow dx="0" dy="16" stdDeviation="18" flood-color="#0B1220" flood-opacity="0.22"/>
    </filter>
  </defs>

  <rect x="24" y="24" width="1152" height="352" rx="40" fill="url(#bg)" filter="url(#shadow)"/>
  <rect x="46" y="46" width="1108" height="308" rx="32" fill="white" fill-opacity="0.10" stroke="white" stroke-opacity="0.25" stroke-width="2"/>

  <g opacity="0.92">
    <path d="M384 252C384 227.7 403.7 208 428 208H772C796.3 208 816 227.7 816 252V286C816 310.3 796.3 330 772 330H428C403.7 330 384 310.3 384 286V252Z" stroke="white" stroke-width="18"/>
    <path d="M448 242H752" stroke="white" stroke-width="16" stroke-linecap="round"/>
    <path d="M448 284H650" stroke="white" stroke-width="16" stroke-linecap="round"/>
  </g>

  <text x="50%" y="46%" text-anchor="middle" dominant-baseline="middle" font-family="Arial, sans-serif" font-size="44" font-weight="800" fill="white" fill-opacity="0.92">Banner</text>
  <text x="50%" y="58%" text-anchor="middle" dominant-baseline="middle" font-family="Arial, sans-serif" font-size="22" fill="white" fill-opacity="0.84">Image not available</text>
</svg>
