<svg xmlns="http://www.w3.org/2000/svg" viewBox="0 0 760 480" role="img" aria-label="Admin illustration">
  <defs>
    <linearGradient id="g" x1="0" y1="0" x2="1" y2="1">
      <stop offset="0" stop-color="#6366f1"/>
      <stop offset="1" stop-color="#ec4899"/>
    </linearGradient>
  </defs>

  <rect width="760" height="480" rx="32" fill="rgba(255,255,255,0.0)"/>
  <circle cx="140" cy="120" r="100" fill="#4facfe" opacity="0.14"/>
  <circle cx="650" cy="110" r="130" fill="#ec4899" opacity="0.12"/>

  <!-- Shield -->
  <g transform="translate(290 100)">
    <path d="M90 0l110 40v110c0 98-66 160-110 180C46 310-20 248-20 150V40z" fill="url(#g)" opacity="0.92"/>
    <path d="M90 70c38 0 70 30 70 68v34H20v-34c0-38 32-68 70-68z" fill="rgba(255,255,255,0.85)"/>
    <circle cx="90" cy="120" r="28" fill="rgba(15,23,42,0.22)"/>
    <rect x="78" y="130" width="24" height="48" rx="12" fill="rgba(15,23,42,0.22)"/>
  </g>

  <!-- Dots -->
  <g fill="#6366f1" opacity="0.22">
    <circle cx="110" cy="390" r="6"/>
    <circle cx="138" cy="410" r="4"/>
    <circle cx="166" cy="390" r="3"/>
  </g>
</svg>
